<svg width="64" height="64" viewBox="0 0 64 64" fill="none" xmlns="http://www.w3.org/2000/svg">
<path d="M31.9997 34.6667C33.4724 34.6667 34.6663 33.4728 34.6663 32C34.6663 30.5272 33.4724 29.3333 31.9997 29.3333C30.5269 29.3333 29.333 30.5272 29.333 32C29.333 33.4728 30.5269 34.6667 31.9997 34.6667Z" stroke="white" stroke-linecap="round" stroke-linejoin="round"/>
<path d="M53.8664 53.8664C59.3064 48.453 53.9197 34.2397 41.8664 22.133C29.7597 10.0797 15.5464 4.69303 10.133 10.133C4.69303 15.5464 10.0797 29.7597 22.133 41.8664C34.2397 53.9197 48.453 59.3064 53.8664 53.8664Z" stroke="white" stroke-linecap="round" stroke-linejoin="round"/>
<path d="M41.8664 41.8664C53.9197 29.7597 59.3064 15.5464 53.8664 10.133C48.453 4.69303 34.2397 10.0797 22.133 22.133C10.0797 34.2397 4.69303 48.453 10.133 53.8664C15.5464 59.3064 29.7597 53.9197 41.8664 41.8664Z" stroke="white" stroke-linecap="round" stroke-linejoin="round"/>
</svg>
