<svg width="32" height="32" viewBox="0 0 32 32" fill="none" xmlns="http://www.w3.org/2000/svg">
<g clip-path="url(#clip0_1990_377)">
<path d="M0 0H10.6687V32H0V0Z" fill="#007A5E"/>
<path d="M10.6688 0H21.3313V32H10.6688V0Z" fill="#CE1126"/>
<path d="M21.3312 0H32V32H21.3312V0Z" fill="#FCD116"/>
<path d="M16 13.1555L15.1111 15.8577L16.4622 16.32L16 13.1555Z" fill="#FCD116"/>
<path d="M16 13.1555L16.8889 15.8577L15.5377 16.32L16 13.1555Z" fill="#FCD116"/>
<path d="M18.7052 15.121L15.8606 15.1107L15.8385 16.5385L18.7052 15.121Z" fill="#FCD116"/>
<path d="M18.7052 15.121L16.4099 16.8015L15.5528 15.6593L18.7052 15.121Z" fill="#FCD116"/>
<path d="M17.6719 18.3012L16.8027 15.5925L15.438 16.0128L17.6719 18.3012Z" fill="#FCD116"/>
<path d="M17.6719 18.3011L15.3645 16.6375L16.1859 15.4693L17.6719 18.3011Z" fill="#FCD116"/>
<path d="M14.3281 18.3011L16.6355 16.6375L15.8141 15.4693L14.3281 18.3011Z" fill="#FCD116"/>
<path d="M14.3281 18.3012L15.1973 15.5925L16.562 16.0128L14.3281 18.3012Z" fill="#FCD116"/>
<path d="M13.2948 15.1209L15.5901 16.8013L16.4472 15.6592L13.2948 15.1209Z" fill="#FCD116"/>
<path d="M13.2948 15.1209L16.1394 15.1105L16.1615 16.5384L13.2948 15.1209Z" fill="#FCD116"/>
</g>
<defs>
<clipPath id="clip0_1990_377">
<rect width="32" height="32" rx="16" fill="white"/>
</clipPath>
</defs>
</svg>
