<svg width="64" height="64" viewBox="0 0 64 64" fill="none" xmlns="http://www.w3.org/2000/svg">
<path d="M34.6406 17.9733L39.7873 27.1466M51.03 32C48.5477 34.5281 45.5866 36.5362 42.3195 37.907C39.0524 39.2779 35.545 39.9839 32.002 39.9839C28.459 39.9839 24.9515 39.2779 21.6844 37.907C18.4173 36.5362 15.4562 34.5281 12.974 32M55.9996 55.9998L50.2396 45.7598M8 56L29.3867 17.9733M37.3333 13.3333C37.3333 16.2789 34.9455 18.6667 32 18.6667C29.0545 18.6667 26.6667 16.2789 26.6667 13.3333C26.6667 10.3878 29.0545 8 32 8C34.9455 8 37.3333 10.3878 37.3333 13.3333Z" stroke="white" stroke-linecap="round" stroke-linejoin="round"/>
</svg>
