<svg width="64" height="64" viewBox="0 0 64 64" fill="none" xmlns="http://www.w3.org/2000/svg">
<path d="M29.333 40.0007H34.6663C36.0808 40.0007 37.4374 39.4387 38.4376 38.4386C39.4378 37.4384 39.9997 36.0818 39.9997 34.6673C39.9997 33.2528 39.4378 31.8963 38.4376 30.8961C37.4374 29.8959 36.0808 29.334 34.6663 29.334H26.6663C25.0663 29.334 23.733 29.8673 22.933 30.934L7.99967 45.334M18.6663 56.0007L22.933 52.2674C23.733 51.2007 25.0663 50.6674 26.6663 50.6674H37.333C40.2663 50.6674 42.933 49.6007 44.7997 47.4674L57.0663 35.7341C58.0954 34.7616 58.696 33.4202 58.736 32.0049C58.776 30.5896 58.2521 29.2164 57.2797 28.1874C56.3072 27.1584 54.9658 26.5578 53.5505 26.5178C52.1352 26.4778 50.762 27.0016 49.733 27.9741L38.533 38.3741M5.33301 42.6673L21.333 58.6673M50.3999 24.0009C50.3999 28.2719 46.9376 31.7342 42.6666 31.7342C38.3956 31.7342 34.9333 28.2719 34.9333 24.0009C34.9333 19.7299 38.3956 16.2676 42.6666 16.2676C46.9376 16.2676 50.3999 19.7299 50.3999 24.0009ZM23.9997 13.334C23.9997 17.7523 20.418 21.334 15.9997 21.334C11.5814 21.334 7.99967 17.7523 7.99967 13.334C7.99967 8.91571 11.5814 5.33398 15.9997 5.33398C20.418 5.33398 23.9997 8.91571 23.9997 13.334Z" stroke="white" stroke-linecap="round" stroke-linejoin="round"/>
</svg>
