<svg width="32" height="32" viewBox="0 0 32 32" fill="none" xmlns="http://www.w3.org/2000/svg">
<g clip-path="url(#clip0_1990_397)">
<mask id="mask0_1990_397" style="mask-type:luminance" maskUnits="userSpaceOnUse" x="0" y="0" width="32" height="32">
<path d="M0 0.00585938H31.9989V31.9984H0V0.00585938Z" fill="white"/>
</mask>
<g mask="url(#mask0_1990_397)">
<path fill-rule="evenodd" clip-rule="evenodd" d="M0 0.00585938H47.9694V31.9984H0V0.00585938Z" fill="#FFE300"/>
<path fill-rule="evenodd" clip-rule="evenodd" d="M0 13.0105H47.9694V19.4387H0V13.0105ZM0 0.0187988H47.9694V6.44696H0V0.0187988Z" fill="#118600"/>
<path fill-rule="evenodd" clip-rule="evenodd" d="M0 0.0187988H19.1555V19.4387H0V0.0187988Z" fill="#D80000"/>
<path fill-rule="evenodd" clip-rule="evenodd" d="M8.40111 8.03299C8.40111 7.97496 9.581 4.71252 9.581 4.71252L10.6513 7.97496C10.6513 7.97496 14.2361 8.08457 14.2361 8.02654C14.2361 7.96851 11.3992 10.1671 11.3992 10.1671C11.3992 10.1671 12.7338 13.9131 12.6822 13.8099C12.6307 13.7068 9.581 11.5598 9.581 11.5598C9.581 11.5598 6.4733 13.7003 6.53133 13.7003C6.58936 13.7003 7.70478 10.1736 7.70478 10.1736L4.9259 8.07812L8.40111 8.03299Z" fill="white"/>
<path fill-rule="evenodd" clip-rule="evenodd" d="M0 25.5767H47.9694V32.0048H0V25.5767Z" fill="#118600"/>
</g>
</g>
<defs>
<clipPath id="clip0_1990_397">
<rect width="32" height="32" rx="16" fill="white"/>
</clipPath>
</defs>
</svg>
